<svg width="720" height="723" viewBox="0 0 720 723" fill="none" xmlns="http://www.w3.org/2000/svg">
<path fill-rule="evenodd" clip-rule="evenodd" d="M307.858 3V48.3105L261.931 93H254C245.716 93 239 99.7158 239 108V128C239 130.625 239.674 133.091 240.858 135.237V222.311L187.29 274.436L187.196 274.394C187.112 274.357 187.028 274.323 186.943 274.29C186.837 274.249 186.729 274.21 186.621 274.174C186.353 274.084 186.078 274.01 185.797 273.952C185.328 273.855 184.842 273.804 184.344 273.804C180.383 273.804 177.172 277.015 177.172 280.976C177.172 284.937 180.383 288.148 184.344 288.148C188.305 288.148 191.516 284.937 191.516 280.976C191.516 279.346 190.972 277.843 190.056 276.638L246.596 222.311V141.048C248.78 142.291 251.307 143 254 143H261.746V222.311L318.286 276.638C317.37 277.843 316.826 279.346 316.826 280.976C316.826 284.937 320.037 288.148 323.998 288.148C327.958 288.148 331.169 284.937 331.169 280.976C331.169 277.015 327.958 273.804 323.998 273.804C322.947 273.804 321.95 274.03 321.051 274.436L267.483 222.311V143H269.746V165.609H269.669V170.03H269.746V202.311L326.286 256.638C325.37 257.843 324.826 259.346 324.826 260.976C324.826 264.937 328.037 268.148 331.998 268.148C335.958 268.148 339.169 264.937 339.169 260.976C339.169 257.015 335.958 253.804 331.998 253.804C331.889 253.804 331.781 253.807 331.674 253.811C331.575 253.815 331.477 253.822 331.379 253.83C331.319 253.835 331.259 253.841 331.199 253.848C331.125 253.856 331.05 253.866 330.976 253.876C330.766 253.907 330.558 253.946 330.354 253.994C329.902 254.1 329.466 254.249 329.051 254.436L275.483 202.311V170.03H340.528L370 139.359V142C370 145.802 371.415 149.273 373.746 151.917V223.311L430.286 277.638C429.37 278.843 428.826 280.346 428.826 281.976C428.826 285.937 432.037 289.148 435.998 289.148C439.958 289.148 443.169 285.937 443.169 281.976C443.169 278.015 439.958 274.804 435.998 274.804C434.947 274.804 433.95 275.03 433.051 275.436L379.483 223.311V155.953C381.191 156.629 383.052 157 385 157H395.746V223.311L452.286 277.638C451.37 278.843 450.826 280.346 450.826 281.976C450.826 285.937 454.037 289.148 457.998 289.148C461.958 289.148 465.169 285.937 465.169 281.976C465.169 278.015 461.958 274.804 457.998 274.804C456.947 274.804 455.95 275.03 455.051 275.436L401.483 223.311V157H405C413.284 157 420 150.284 420 142V122C420 120.467 419.77 118.988 419.343 117.596H507.311L534.188 89.6226L536.286 91.6382C535.37 92.8428 534.826 94.3457 534.826 95.9761C534.826 99.937 538.037 103.148 541.998 103.148C542.289 103.148 542.576 103.131 542.858 103.097V191.311L489.29 243.436C488.93 243.273 488.554 243.139 488.165 243.038C488.099 243.02 488.032 243.004 487.965 242.988C487.882 242.969 487.797 242.951 487.712 242.935C487.517 242.897 487.318 242.867 487.117 242.846C486.863 242.818 486.605 242.804 486.344 242.804C482.383 242.804 479.172 246.015 479.172 249.976C479.172 253.937 482.383 257.148 486.344 257.148C490.305 257.148 493.516 253.937 493.516 249.976C493.516 248.346 492.972 246.843 492.055 245.638L548.596 191.311V99.3667H548.319C548.861 98.3574 549.169 97.2026 549.169 95.9761C549.169 92.0151 545.958 88.8042 541.998 88.8042C540.947 88.8042 539.95 89.0298 539.051 89.4355L536.631 87.0806L561.638 61.0552C562.843 61.9717 564.346 62.5156 565.976 62.5156C569.937 62.5156 573.148 59.3047 573.148 55.3438C573.148 51.3828 569.937 48.1719 565.976 48.1719C562.015 48.1719 558.804 51.3828 558.804 55.3438C558.804 56.394 559.03 57.3911 559.436 58.29L533.955 84.4761L485.483 37.3105V3H610C630.808 3 650.266 8.77734 666.858 18.8154V110.311L613.29 162.436C612.391 162.03 611.394 161.804 610.344 161.804C606.383 161.804 603.172 165.015 603.172 168.976C603.172 172.937 606.383 176.148 610.344 176.148L610.476 176.147L610.573 176.145C610.668 176.142 610.764 176.137 610.858 176.13V263.311L557.29 315.436C556.391 315.03 555.394 314.804 554.344 314.804C550.383 314.804 547.172 318.015 547.172 321.976C547.172 325.937 550.383 329.148 554.344 329.148C558.305 329.148 561.516 325.937 561.516 321.976C561.516 320.346 560.972 318.843 560.055 317.638L616.596 263.311V172.493C617.182 171.454 617.516 170.254 617.516 168.976C617.516 167.346 616.972 165.843 616.055 164.638L672.596 110.311V22.5347C678.456 26.5972 683.902 31.2139 688.858 36.3096V110.311L635.29 162.436C634.391 162.03 633.394 161.804 632.344 161.804C628.383 161.804 625.172 165.015 625.172 168.976C625.172 172.937 628.383 176.148 632.344 176.148C636.305 176.148 639.516 172.937 639.516 168.976C639.516 167.346 638.972 165.843 638.055 164.638L694.596 110.311V42.6851C710.459 61.749 720 86.2603 720 113V277.607L704.729 292.467C703.537 292.162 702.287 292 701 292H681C672.716 292 666 298.716 666 307V327C666 335.284 672.716 342 681 342H701C709.284 342 716 335.284 716 327V307C716 301.423 712.957 296.558 708.44 293.973L720 282.865V613C720 673.751 670.751 723 610 723H110C49.2485 723 0 673.751 0 613V287.431C1.53955 286.116 2.51562 284.16 2.51562 281.976C2.51562 280.346 1.97168 278.843 1.05518 277.638L53.2021 227.532C53.0693 228.335 53 229.16 53 230V235.472L25.29 262.436C24.3911 262.03 23.394 261.804 22.3438 261.804C18.3828 261.804 15.1719 265.015 15.1719 268.976C15.1719 272.937 18.3828 276.148 22.3438 276.148C26.3047 276.148 29.5156 272.937 29.5156 268.976C29.5156 267.346 28.9717 265.843 28.0557 264.638L53 240.67V250C53 258.284 59.7158 265 68 265H88C90.0732 265 92.0483 264.58 93.8447 263.819L120 288.951V305C120 313.284 126.716 320 135 320H155C163.284 320 170 313.284 170 305V285C170 280.814 168.286 277.029 165.521 274.308L218.596 223.311V136.692C222.236 134.968 224.754 131.26 224.754 126.964C224.754 121.023 219.938 116.207 213.996 116.207C212.421 116.207 210.925 116.545 209.577 117.153L158.596 67.5454V67.3667H158.412L150.424 59.5942L171.894 38.9653V3H307.858ZM22.2002 265.247C22.2656 265.247 22.3306 265.249 22.395 265.252L22.3438 265.302H22.8301C24.5103 265.6 25.7861 267.067 25.7861 268.833C25.7861 270.813 24.1807 272.419 22.2002 272.419C20.2197 272.419 18.6143 270.813 18.6143 268.833C18.6143 266.853 20.2197 265.247 22.2002 265.247ZM84.4829 210.419V215H88C88.5991 215 89.1899 215.035 89.7705 215.104C90.8779 212.573 93.4043 210.804 96.3438 210.804C97.394 210.804 98.3911 211.03 99.29 211.436L152.858 159.311V69.9434L146.256 63.5996L87.083 120.457C88.4575 122.264 89.2734 124.519 89.2734 126.964C89.2734 130.649 87.4204 133.901 84.5957 135.84V210.311L84.4829 210.419ZM78.7456 210.42V157.367H78.8584V137.717L78.6919 137.721L78.5156 137.722C72.5742 137.722 67.7578 132.906 67.7578 126.964C67.7578 121.023 72.5742 116.207 78.5156 116.207C80.0908 116.207 81.5869 116.545 82.9351 117.153L142.087 59.5942L134.756 52.5498L64.083 120.457C65.4575 122.264 66.2734 124.519 66.2734 126.964C66.2734 132.194 62.5415 136.552 57.5957 137.521V219.195C60.2925 216.597 63.96 215 68 215H74.0391L78.7456 210.42ZM78.8584 132.099V121.454H78.5156L78.5928 121.378C78.4961 121.373 78.3984 121.37 78.3003 121.37C75.3296 121.37 72.9214 123.778 72.9214 126.749C72.9214 129.72 75.3296 132.128 78.3003 132.128L78.4365 132.126L78.5259 132.124C78.6377 132.119 78.7485 132.11 78.8584 132.099ZM96.395 214.252L96.3438 214.302H96.8301C98.5103 214.6 99.7861 216.067 99.7861 217.833C99.7861 217.998 99.7749 218.161 99.7534 218.32C99.748 218.359 99.7422 218.397 99.7354 218.436C99.7275 218.482 99.7192 218.528 99.7095 218.573C99.6909 218.662 99.6689 218.75 99.6436 218.836C99.5693 219.092 99.4673 219.336 99.3408 219.564C99.272 219.689 99.1958 219.81 99.1128 219.925C97.5 218.147 95.4668 216.758 93.1699 215.915C93.8057 214.912 94.9253 214.247 96.2002 214.247C96.2656 214.247 96.3306 214.249 96.395 214.252ZM101.335 223.125C102.68 221.822 103.516 219.997 103.516 217.976C103.516 216.346 102.972 214.843 102.056 213.638L158.596 159.311V75.4565L205.429 120.457C204.054 122.264 203.238 124.519 203.238 126.964C203.238 132.521 207.452 137.094 212.858 137.663V223.311L162.695 272.122C160.445 270.774 157.813 270 155 270H135C127.083 270 120.598 276.134 120.039 283.909L97.293 261.775C100.769 259.028 103 254.774 103 250V230C103 227.522 102.399 225.185 101.335 223.125ZM370 135.321L340.528 165.609H275.483V142.928C283.071 142.183 289 135.784 289 128V108C289 99.7158 282.284 93 274 93H267.086L313.596 48.3105V3H458.858V55.3105L405.72 107.017C405.62 107.012 405.519 107.008 405.418 107.006C405.279 107.002 405.14 107 405 107H404.015C403.479 106.872 402.919 106.804 402.344 106.804C401.769 106.804 401.209 106.872 400.673 107H385C376.716 107 370 113.716 370 122V135.321ZM328.555 260.833C328.555 259.067 329.831 257.6 331.511 257.302H331.998L331.946 257.252L332.067 257.248L332.141 257.247C334.122 257.247 335.727 258.853 335.727 260.833C335.727 262.813 334.122 264.419 332.141 264.419C330.161 264.419 328.555 262.813 328.555 260.833ZM323.511 277.302H323.998L323.946 277.252C324.011 277.249 324.076 277.247 324.141 277.247C326.122 277.247 327.727 278.853 327.727 280.833C327.727 282.813 326.122 284.419 324.141 284.419C322.161 284.419 320.555 282.813 320.555 280.833C320.555 279.067 321.831 277.6 323.511 277.302ZM184.2 277.247C184.266 277.247 184.331 277.249 184.395 277.252L184.344 277.302H184.83C186.51 277.6 187.786 279.067 187.786 280.833C187.786 282.813 186.181 284.419 184.2 284.419C182.22 284.419 180.614 282.813 180.614 280.833C180.614 278.853 182.22 277.247 184.2 277.247ZM479.746 3H464.596V55.3105L409.936 107.831C412.3 108.654 414.394 110.053 416.052 111.858H507.311L531.479 87.0195L479.746 37.3105V3ZM163.287 38.9653V3H148.894V38.9653L138.997 48.4746L146.256 55.5381L163.287 38.9653ZM140.287 38.9653V3H129.225V38.9653L134.756 44.3477L140.287 38.9653ZM120.618 38.9653V3H110C49.2485 3 0 52.2485 0 113V273.771L51.8579 223.311V137.084C47.7173 135.587 44.7578 131.622 44.7578 126.964C44.7578 121.023 49.5742 116.207 55.5156 116.207C57.0908 116.207 58.5869 116.545 59.9351 117.153L130.515 48.4746L120.618 38.9653ZM216.972 131.367H212.858V131.957C210.542 131.356 208.833 129.252 208.833 126.749C208.833 124.102 210.745 121.901 213.264 121.454H213.996L213.919 121.378C214.016 121.373 214.113 121.37 214.211 121.37C217.182 121.37 219.59 123.778 219.59 126.749C219.59 128.711 218.54 130.427 216.972 131.367ZM60.6792 126.749C60.6792 128.899 59.4185 130.754 57.5957 131.615V131.367H52.54C50.9717 130.427 49.9214 128.711 49.9214 126.749C49.9214 123.778 52.3296 121.37 55.3003 121.37C55.3984 121.37 55.4961 121.373 55.5928 121.378L55.5156 121.454H56.2476C58.7666 121.901 60.6792 124.102 60.6792 126.749ZM562.302 55.8315C562.601 57.5112 564.068 58.7861 565.833 58.7861C567.813 58.7861 569.419 57.1807 569.419 55.2002C569.419 53.2197 567.813 51.6143 565.833 51.6143C563.853 51.6143 562.247 53.2197 562.247 55.2002L562.248 55.2925L562.252 55.3955L562.302 55.3438V55.8315ZM454.555 281.833C454.555 280.068 455.83 278.601 457.51 278.302H457.998L457.946 278.252C458.011 278.249 458.076 278.247 458.141 278.247C460.122 278.247 461.727 279.853 461.727 281.833C461.727 283.813 460.122 285.419 458.141 285.419C456.161 285.419 454.555 283.813 454.555 281.833ZM435.51 278.302C433.83 278.601 432.555 280.068 432.555 281.833C432.555 283.813 434.161 285.419 436.141 285.419C438.122 285.419 439.727 283.813 439.727 281.833C439.727 279.853 438.122 278.247 436.141 278.247C436.076 278.247 436.011 278.249 435.946 278.252L435.998 278.302H435.51ZM541.51 92.3022C539.83 92.6006 538.555 94.0679 538.555 95.833C538.555 97.8135 540.161 99.4189 542.141 99.4189C544.122 99.4189 545.727 97.8135 545.727 95.833C545.727 93.8525 544.122 92.2471 542.141 92.2471C542.076 92.2471 542.011 92.2485 541.946 92.252L541.998 92.3022H541.51ZM612.737 171.367H610.858V172.358C610.768 172.375 610.676 172.389 610.583 172.398C610.458 172.412 610.33 172.419 610.2 172.419C608.22 172.419 606.614 170.813 606.614 168.833C606.614 166.853 608.22 165.247 610.2 165.247H610.25C610.299 165.248 610.347 165.25 610.396 165.252L610.344 165.302H610.832C612.511 165.601 613.786 167.068 613.786 168.833C613.786 169.822 613.386 170.718 612.737 171.367ZM554.2 318.247C554.266 318.247 554.331 318.249 554.396 318.252L554.344 318.302H554.832C556.511 318.601 557.786 320.068 557.786 321.833C557.786 323.813 556.181 325.419 554.2 325.419C552.22 325.419 550.614 323.813 550.614 321.833C550.614 319.853 552.22 318.247 554.2 318.247ZM632.344 165.302L632.396 165.252C632.35 165.25 632.304 165.248 632.257 165.247H632.222H632.2C630.22 165.247 628.614 166.853 628.614 168.833C628.614 170.813 630.22 172.419 632.2 172.419C634.181 172.419 635.786 170.813 635.786 168.833C635.786 167.068 634.511 165.601 632.832 165.302H632.344ZM486.344 246.302L486.396 246.252L486.294 246.248L486.2 246.247C484.22 246.247 482.614 247.853 482.614 249.833C482.614 251.813 484.22 253.419 486.2 253.419C488.181 253.419 489.786 251.813 489.786 249.833C489.786 248.068 488.511 246.601 486.832 246.302H486.344Z" fill="white"/>
<path d="M205.433 499V458.091H229.104V461.447H209.169V476.848H227.246V480.203H209.169V499H205.433ZM247.326 499.639C244.676 499.639 242.332 498.967 240.295 497.622C238.271 496.277 236.686 494.419 235.541 492.049C234.396 489.665 233.823 486.915 233.823 483.799C233.823 480.656 234.396 477.893 235.541 475.509C236.686 473.112 238.271 471.248 240.295 469.916C242.332 468.571 244.676 467.899 247.326 467.899C249.976 467.899 252.313 468.571 254.337 469.916C256.362 471.261 257.946 473.126 259.091 475.509C260.25 477.893 260.829 480.656 260.829 483.799C260.829 486.915 260.257 489.665 259.111 492.049C257.966 494.419 256.375 496.277 254.337 497.622C252.313 498.967 249.976 499.639 247.326 499.639ZM247.326 496.383C249.457 496.383 251.261 495.811 252.739 494.665C254.218 493.52 255.336 491.995 256.095 490.091C256.868 488.187 257.254 486.089 257.254 483.799C257.254 481.508 256.868 479.404 256.095 477.487C255.336 475.569 254.218 474.031 252.739 472.873C251.261 471.714 249.457 471.135 247.326 471.135C245.209 471.135 243.404 471.714 241.913 472.873C240.435 474.031 239.309 475.569 238.537 477.487C237.778 479.404 237.398 481.508 237.398 483.799C237.398 486.089 237.778 488.187 238.537 490.091C239.309 491.995 240.435 493.52 241.913 494.665C243.391 495.811 245.195 496.383 247.326 496.383ZM268.635 499V468.318H272.09V473.032H272.35C272.963 471.488 274.028 470.242 275.546 469.297C277.077 468.338 278.809 467.859 280.74 467.859C281.032 467.859 281.359 467.865 281.718 467.879C282.078 467.892 282.377 467.905 282.617 467.919V471.534C282.457 471.508 282.178 471.468 281.778 471.414C281.379 471.361 280.946 471.334 280.48 471.334C278.882 471.334 277.457 471.674 276.205 472.353C274.967 473.019 273.988 473.945 273.269 475.13C272.55 476.315 272.19 477.667 272.19 479.185V499H268.635ZM288.685 499V468.318H292.14V473.032H292.46C293.073 471.448 294.091 470.203 295.516 469.297C296.954 468.378 298.679 467.919 300.69 467.919C302.807 467.919 304.545 468.418 305.903 469.417C307.275 470.402 308.3 471.761 308.979 473.492H309.239C309.932 471.787 311.057 470.436 312.615 469.437C314.186 468.425 316.091 467.919 318.328 467.919C321.178 467.919 323.428 468.818 325.079 470.615C326.731 472.4 327.556 475.01 327.556 478.446V499H324.001V478.446C324.001 476.022 323.381 474.204 322.143 472.992C320.905 471.781 319.273 471.175 317.249 471.175C314.905 471.175 313.101 471.894 311.836 473.332C310.571 474.77 309.938 476.595 309.938 478.805V499H306.303V478.126C306.303 476.049 305.723 474.371 304.565 473.092C303.406 471.814 301.775 471.175 299.671 471.175C298.259 471.175 296.988 471.521 295.856 472.213C294.737 472.906 293.852 473.871 293.199 475.11C292.56 476.335 292.24 477.746 292.24 479.344V499H288.685ZM337.009 499V468.318H340.585V499H337.009ZM338.827 463.045C338.095 463.045 337.469 462.798 336.95 462.306C336.43 461.8 336.171 461.194 336.171 460.488C336.171 459.782 336.43 459.183 336.95 458.69C337.469 458.184 338.095 457.931 338.827 457.931C339.56 457.931 340.186 458.184 340.705 458.69C341.224 459.183 341.484 459.782 341.484 460.488C341.484 461.194 341.224 461.8 340.705 462.306C340.186 462.798 339.56 463.045 338.827 463.045ZM361.694 511.145C359.603 511.145 357.772 510.872 356.201 510.326C354.629 509.793 353.304 509.061 352.226 508.129C351.147 507.196 350.308 506.151 349.709 504.993L352.625 503.075C353.065 503.847 353.65 504.606 354.383 505.352C355.129 506.098 356.094 506.717 357.279 507.21C358.478 507.703 359.949 507.949 361.694 507.949C364.41 507.949 366.601 507.27 368.266 505.911C369.944 504.553 370.782 502.442 370.782 499.579V492.668H370.463C370.05 493.6 369.457 494.532 368.685 495.464C367.913 496.383 366.901 497.149 365.649 497.762C364.41 498.374 362.872 498.68 361.035 498.68C358.584 498.68 356.407 498.074 354.503 496.863C352.612 495.651 351.12 493.92 350.028 491.669C348.95 489.405 348.41 486.709 348.41 483.579C348.41 480.476 348.936 477.746 349.988 475.389C351.054 473.032 352.539 471.195 354.443 469.876C356.347 468.558 358.564 467.899 361.095 467.899C362.972 467.899 364.53 468.232 365.769 468.897C367.007 469.55 367.999 470.362 368.745 471.334C369.504 472.307 370.097 473.252 370.523 474.171H370.882V468.318H374.358V499.799C374.358 502.396 373.805 504.533 372.7 506.211C371.595 507.889 370.09 509.127 368.186 509.926C366.281 510.739 364.117 511.145 361.694 511.145ZM361.454 495.424C363.425 495.424 365.11 494.952 366.508 494.006C367.906 493.047 368.978 491.676 369.724 489.891C370.47 488.107 370.842 485.983 370.842 483.519C370.842 481.122 370.476 478.998 369.744 477.147C369.011 475.283 367.946 473.818 366.548 472.753C365.163 471.674 363.465 471.135 361.454 471.135C359.403 471.135 357.672 471.687 356.261 472.793C354.849 473.898 353.784 475.389 353.065 477.267C352.345 479.131 351.986 481.215 351.986 483.519C351.986 485.863 352.352 487.934 353.084 489.732C353.817 491.516 354.889 492.914 356.3 493.926C357.712 494.925 359.43 495.424 361.454 495.424ZM403.267 487.275V468.318H406.823V499H403.267V493.906H402.987C402.268 495.478 401.13 496.789 399.572 497.841C398.014 498.88 396.109 499.4 393.859 499.4C391.901 499.4 390.163 498.973 388.645 498.121C387.127 497.256 385.935 495.99 385.07 494.326C384.204 492.661 383.771 490.617 383.771 488.193V468.318H387.327V487.974C387.327 490.371 388.033 492.302 389.444 493.767C390.856 495.218 392.667 495.944 394.877 495.944C396.262 495.944 397.594 495.611 398.873 494.945C400.151 494.279 401.203 493.307 402.029 492.029C402.854 490.737 403.267 489.152 403.267 487.275ZM428.64 499.639C425.777 499.639 423.3 498.973 421.21 497.642C419.119 496.297 417.501 494.439 416.356 492.069C415.224 489.685 414.658 486.942 414.658 483.839C414.658 480.749 415.224 478.006 416.356 475.609C417.501 473.199 419.079 471.314 421.09 469.956C423.114 468.585 425.451 467.899 428.101 467.899C429.766 467.899 431.37 468.205 432.915 468.818C434.46 469.417 435.845 470.342 437.07 471.594C438.308 472.833 439.287 474.397 440.006 476.288C440.725 478.166 441.085 480.39 441.085 482.96V484.718H417.115V481.582H437.45C437.45 479.611 437.05 477.84 436.251 476.268C435.465 474.684 434.367 473.432 432.955 472.513C431.557 471.594 429.939 471.135 428.101 471.135C426.157 471.135 424.446 471.654 422.968 472.693C421.489 473.731 420.331 475.103 419.492 476.808C418.666 478.512 418.247 480.377 418.233 482.401V484.278C418.233 486.715 418.653 488.846 419.492 490.67C420.344 492.481 421.549 493.886 423.107 494.885C424.665 495.884 426.51 496.383 428.64 496.383C430.092 496.383 431.364 496.157 432.456 495.704C433.561 495.251 434.487 494.645 435.232 493.886C435.991 493.114 436.564 492.268 436.95 491.35L440.326 492.448C439.86 493.74 439.094 494.932 438.029 496.024C436.977 497.116 435.658 497.995 434.074 498.66C432.502 499.313 430.691 499.639 428.64 499.639ZM448.96 499V468.318H452.536V499H448.96ZM450.778 463.045C450.045 463.045 449.42 462.798 448.9 462.306C448.381 461.8 448.121 461.194 448.121 460.488C448.121 459.782 448.381 459.183 448.9 458.69C449.42 458.184 450.045 457.931 450.778 457.931C451.51 457.931 452.136 458.184 452.656 458.69C453.175 459.183 453.435 459.782 453.435 460.488C453.435 461.194 453.175 461.8 452.656 462.306C452.136 462.798 451.51 463.045 450.778 463.045ZM461.939 499V468.318H465.395V473.032H465.654C466.267 471.488 467.332 470.242 468.85 469.297C470.382 468.338 472.113 467.859 474.044 467.859C474.337 467.859 474.663 467.865 475.023 467.879C475.382 467.892 475.682 467.905 475.922 467.919V471.534C475.762 471.508 475.482 471.468 475.083 471.414C474.683 471.361 474.25 471.334 473.784 471.334C472.186 471.334 470.761 471.674 469.51 472.353C468.271 473.019 467.292 473.945 466.573 475.13C465.854 476.315 465.495 477.667 465.495 479.185V499H461.939ZM492.98 499.639C490.33 499.639 487.987 498.967 485.949 497.622C483.925 496.277 482.34 494.419 481.195 492.049C480.05 489.665 479.477 486.915 479.477 483.799C479.477 480.656 480.05 477.893 481.195 475.509C482.34 473.112 483.925 471.248 485.949 469.916C487.987 468.571 490.33 467.899 492.98 467.899C495.63 467.899 497.968 468.571 499.992 469.916C502.016 471.261 503.601 473.126 504.746 475.509C505.904 477.893 506.484 480.656 506.484 483.799C506.484 486.915 505.911 489.665 504.766 492.049C503.62 494.419 502.029 496.277 499.992 497.622C497.968 498.967 495.63 499.639 492.98 499.639ZM492.98 496.383C495.111 496.383 496.916 495.811 498.394 494.665C499.872 493.52 500.99 491.995 501.749 490.091C502.522 488.187 502.908 486.089 502.908 483.799C502.908 481.508 502.522 479.404 501.749 477.487C500.99 475.569 499.872 474.031 498.394 472.873C496.916 471.714 495.111 471.135 492.98 471.135C490.863 471.135 489.059 471.714 487.567 472.873C486.089 474.031 484.964 475.569 484.191 477.487C483.432 479.404 483.053 481.508 483.053 483.799C483.053 486.089 483.432 488.187 484.191 490.091C484.964 491.995 486.089 493.52 487.567 494.665C489.045 495.811 490.85 496.383 492.98 496.383Z" fill="black"/>
<path d="M185.72 538.885V546.512H173.165V586H163.715V546.512H151.16V538.885H185.72ZM227.378 566.492C227.378 567.842 227.288 569.057 227.108 570.137H199.77C199.995 572.837 200.94 574.952 202.605 576.482C204.27 578.012 206.318 578.777 208.748 578.777C212.258 578.777 214.755 577.27 216.24 574.255H226.433C225.353 577.855 223.283 580.825 220.223 583.165C217.163 585.46 213.405 586.608 208.95 586.608C205.35 586.608 202.11 585.82 199.23 584.245C196.395 582.625 194.168 580.352 192.548 577.427C190.973 574.502 190.185 571.127 190.185 567.302C190.185 563.432 190.973 560.035 192.548 557.11C194.123 554.185 196.328 551.935 199.163 550.36C201.998 548.785 205.26 547.997 208.95 547.997C212.505 547.997 215.678 548.762 218.468 550.292C221.303 551.822 223.485 554.005 225.015 556.84C226.59 559.63 227.378 562.847 227.378 566.492ZM217.59 563.792C217.545 561.362 216.668 559.427 214.958 557.987C213.248 556.502 211.155 555.76 208.68 555.76C206.34 555.76 204.36 556.48 202.74 557.92C201.165 559.315 200.198 561.272 199.838 563.792H217.59ZM231.845 567.302C231.845 563.432 232.633 560.057 234.208 557.177C235.783 554.252 237.965 552.002 240.755 550.427C243.545 548.807 246.74 547.997 250.34 547.997C254.975 547.997 258.8 549.167 261.815 551.507C264.875 553.802 266.923 557.042 267.958 561.227H257.765C257.225 559.607 256.303 558.347 254.998 557.447C253.738 556.502 252.163 556.03 250.273 556.03C247.573 556.03 245.435 557.02 243.86 559C242.285 560.935 241.498 563.702 241.498 567.302C241.498 570.857 242.285 573.625 243.86 575.605C245.435 577.54 247.573 578.507 250.273 578.507C254.098 578.507 256.595 576.797 257.765 573.377H267.958C266.923 577.427 264.875 580.645 261.815 583.03C258.755 585.415 254.93 586.608 250.34 586.608C246.74 586.608 243.545 585.82 240.755 584.245C237.965 582.625 235.783 580.375 234.208 577.495C232.633 574.57 231.845 571.172 231.845 567.302ZM295.603 548.065C300.058 548.065 303.658 549.482 306.403 552.317C309.148 555.107 310.521 559.022 310.521 564.062V586H301.071V565.345C301.071 562.375 300.328 560.102 298.843 558.527C297.358 556.907 295.333 556.097 292.768 556.097C290.158 556.097 288.088 556.907 286.558 558.527C285.073 560.102 284.331 562.375 284.331 565.345V586H274.881V548.605H284.331V553.262C285.591 551.642 287.188 550.382 289.123 549.482C291.103 548.537 293.263 548.065 295.603 548.065ZM336.112 586.608C332.512 586.608 329.272 585.82 326.392 584.245C323.512 582.625 321.24 580.352 319.575 577.427C317.955 574.502 317.145 571.127 317.145 567.302C317.145 563.477 317.977 560.102 319.642 557.177C321.352 554.252 323.67 552.002 326.595 550.427C329.52 548.807 332.782 547.997 336.382 547.997C339.982 547.997 343.245 548.807 346.17 550.427C349.095 552.002 351.39 554.252 353.055 557.177C354.765 560.102 355.62 563.477 355.62 567.302C355.62 571.127 354.742 574.502 352.987 577.427C351.277 580.352 348.937 582.625 345.967 584.245C343.042 585.82 339.757 586.608 336.112 586.608ZM336.112 578.372C337.822 578.372 339.42 577.967 340.905 577.157C342.435 576.302 343.65 575.042 344.55 573.377C345.45 571.712 345.9 569.687 345.9 567.302C345.9 563.747 344.955 561.025 343.065 559.135C341.22 557.2 338.947 556.232 336.247 556.232C333.547 556.232 331.275 557.2 329.43 559.135C327.63 561.025 326.73 563.747 326.73 567.302C326.73 570.857 327.607 573.602 329.362 575.537C331.162 577.427 333.412 578.372 336.112 578.372ZM372.002 536.05V586H362.552V536.05H372.002ZM397.943 586.608C394.343 586.608 391.103 585.82 388.223 584.245C385.343 582.625 383.071 580.352 381.406 577.427C379.786 574.502 378.976 571.127 378.976 567.302C378.976 563.477 379.808 560.102 381.473 557.177C383.183 554.252 385.501 552.002 388.426 550.427C391.351 548.807 394.613 547.997 398.213 547.997C401.813 547.997 405.076 548.807 408.001 550.427C410.926 552.002 413.221 554.252 414.886 557.177C416.596 560.102 417.451 563.477 417.451 567.302C417.451 571.127 416.573 574.502 414.818 577.427C413.108 580.352 410.768 582.625 407.798 584.245C404.873 585.82 401.588 586.608 397.943 586.608ZM397.943 578.372C399.653 578.372 401.251 577.967 402.736 577.157C404.266 576.302 405.481 575.042 406.381 573.377C407.281 571.712 407.731 569.687 407.731 567.302C407.731 563.747 406.786 561.025 404.896 559.135C403.051 557.2 400.778 556.232 398.078 556.232C395.378 556.232 393.106 557.2 391.261 559.135C389.461 561.025 388.561 563.747 388.561 567.302C388.561 570.857 389.438 573.602 391.193 575.537C392.993 577.427 395.243 578.372 397.943 578.372ZM405.976 538.412L390.451 545.5V538.75L405.976 530.717V538.412ZM439.03 547.997C441.82 547.997 444.273 548.56 446.388 549.685C448.503 550.765 450.168 552.182 451.383 553.937V548.605H460.9V586.27C460.9 589.735 460.203 592.818 458.808 595.518C457.413 598.263 455.32 600.423 452.53 601.998C449.74 603.618 446.365 604.428 442.405 604.428C437.095 604.428 432.73 603.19 429.31 600.715C425.935 598.24 424.023 594.865 423.573 590.59H432.955C433.45 592.3 434.508 593.65 436.128 594.64C437.793 595.675 439.795 596.193 442.135 596.193C444.88 596.193 447.108 595.36 448.818 593.695C450.528 592.075 451.383 589.6 451.383 586.27V580.465C450.168 582.22 448.48 583.682 446.32 584.852C444.205 586.023 441.775 586.608 439.03 586.608C435.88 586.608 433 585.798 430.39 584.177C427.78 582.557 425.71 580.285 424.18 577.36C422.695 574.39 421.953 570.992 421.953 567.167C421.953 563.387 422.695 560.035 424.18 557.11C425.71 554.185 427.758 551.935 430.323 550.36C432.933 548.785 435.835 547.997 439.03 547.997ZM451.383 567.302C451.383 565.007 450.933 563.05 450.033 561.43C449.133 559.765 447.918 558.505 446.388 557.65C444.858 556.75 443.215 556.3 441.46 556.3C439.705 556.3 438.085 556.727 436.6 557.582C435.115 558.437 433.9 559.697 432.955 561.362C432.055 562.982 431.605 564.917 431.605 567.167C431.605 569.417 432.055 571.397 432.955 573.107C433.9 574.772 435.115 576.055 436.6 576.955C438.13 577.855 439.75 578.305 441.46 578.305C443.215 578.305 444.858 577.877 446.388 577.022C447.918 576.122 449.133 574.862 450.033 573.242C450.933 571.577 451.383 569.597 451.383 567.302ZM474.922 544.15C473.257 544.15 471.862 543.632 470.737 542.597C469.657 541.517 469.117 540.19 469.117 538.615C469.117 537.04 469.657 535.735 470.737 534.7C471.862 533.62 473.257 533.08 474.922 533.08C476.587 533.08 477.96 533.62 479.04 534.7C480.165 535.735 480.727 537.04 480.727 538.615C480.727 540.19 480.165 541.517 479.04 542.597C477.96 543.632 476.587 544.15 474.922 544.15ZM479.58 548.605V586H470.13V548.605H479.58ZM486.486 567.302C486.486 563.432 487.274 560.057 488.849 557.177C490.424 554.252 492.606 552.002 495.396 550.427C498.186 548.807 501.381 547.997 504.981 547.997C509.616 547.997 513.441 549.167 516.456 551.507C519.516 553.802 521.564 557.042 522.599 561.227H512.406C511.866 559.607 510.944 558.347 509.639 557.447C508.379 556.502 506.804 556.03 504.914 556.03C502.214 556.03 500.076 557.02 498.501 559C496.926 560.935 496.139 563.702 496.139 567.302C496.139 570.857 496.926 573.625 498.501 575.605C500.076 577.54 502.214 578.507 504.914 578.507C508.739 578.507 511.236 576.797 512.406 573.377H522.599C521.564 577.427 519.516 580.645 516.456 583.03C513.396 585.415 509.571 586.608 504.981 586.608C501.381 586.608 498.186 585.82 495.396 584.245C492.606 582.625 490.424 580.375 488.849 577.495C487.274 574.57 486.486 571.172 486.486 567.302ZM546.127 586.608C542.527 586.608 539.287 585.82 536.407 584.245C533.527 582.625 531.254 580.352 529.589 577.427C527.969 574.502 527.159 571.127 527.159 567.302C527.159 563.477 527.992 560.102 529.657 557.177C531.367 554.252 533.684 552.002 536.609 550.427C539.534 548.807 542.797 547.997 546.397 547.997C549.997 547.997 553.259 548.807 556.184 550.427C559.109 552.002 561.404 554.252 563.069 557.177C564.779 560.102 565.634 563.477 565.634 567.302C565.634 571.127 564.757 574.502 563.002 577.427C561.292 580.352 558.952 582.625 555.982 584.245C553.057 585.82 549.772 586.608 546.127 586.608ZM546.127 578.372C547.837 578.372 549.434 577.967 550.919 577.157C552.449 576.302 553.664 575.042 554.564 573.377C555.464 571.712 555.914 569.687 555.914 567.302C555.914 563.747 554.969 561.025 553.079 559.135C551.234 557.2 548.962 556.232 546.262 556.232C543.562 556.232 541.289 557.2 539.444 559.135C537.644 561.025 536.744 563.747 536.744 567.302C536.744 570.857 537.622 573.602 539.377 575.537C541.177 577.427 543.427 578.372 546.127 578.372Z" fill="black"/>
<path fill-rule="evenodd" clip-rule="evenodd" d="M161.772 345.416C174.97 345.857 178.789 349.634 179.701 362.291C183.276 364.456 183.415 366.808 183.076 371.361C189.232 372.909 190.592 375.615 188.983 384.017C200.535 373.617 206.211 372.17 215.139 376.002C224.807 371.8 228.436 370.898 233.913 370.095C241.812 382.372 245.599 404.119 244.671 405.744C243.743 407.368 249.367 417.906 248.468 418.4C250.898 418.551 250.232 422.388 249.944 422.408C249.657 422.427 255.008 434.222 259.014 439.705C261.22 441.772 262.989 442.604 267.452 443.291C268.547 443.798 268.569 444.343 267.452 445.822C267.253 445.621 260.408 444.574 257.96 443.291C255.511 442.007 257.739 441.273 256.483 440.97L248.468 423.673C247.89 421.823 244.671 422.408 244.671 422.408C244.671 422.408 246.627 418.106 245.936 418.4C243.898 414.264 243.414 411.891 242.772 407.642C241.397 407.124 240.7 406.779 240.03 405.744C240.03 405.744 234.546 374.947 233.913 376.002L223.577 380.22C242.231 398.38 243.058 416.528 231.171 436.119C220.499 433.826 214.911 430.105 205.436 420.298C205.368 422.574 205.493 423.83 206.069 425.994C206.458 426.718 207.124 427.47 207.335 427.681C207.546 427.892 207.455 428.861 207.335 429.58C208.845 435.911 210.021 439.166 212.819 444.345L214.085 444.978C214.085 444.978 214.582 445.062 214.296 446.244C214.009 447.425 219.085 449.811 220.624 450.463C222.142 451.143 221.468 452.783 221.257 452.994C221.046 453.205 218.561 452.824 217.249 452.15C216.413 452.381 216.075 452.401 215.561 452.361C215.059 451.587 214.876 451.076 214.718 450.041C213.898 450.349 213.498 450.343 212.819 450.041C212.566 449.247 212.578 448.779 212.397 447.931C212.216 447.084 211.214 447.653 210.71 447.298C210.647 446.684 210.662 446.37 210.71 445.822C208.606 441.02 206.457 438.555 205.436 433.377C205.227 432.314 205.395 430.77 205.014 430.634C204.633 430.499 203.314 430.423 203.116 430.213C202.918 430.002 203.749 426.838 203.749 426.838L202.905 419.455C197.823 414.068 196.741 405.845 195.522 389.08C192.664 391.487 191.524 392.639 186.452 394.986C180.048 394.865 178.486 392.621 176.96 386.759C176.787 383.532 176.693 381.721 176.96 378.322C175.751 377.495 175.116 376.838 174.007 375.58C174.116 377.379 173.716 378.388 173.585 380.22C173.052 380.626 172.785 380.854 172.741 381.275C172.298 382.508 172.633 383.106 172.319 384.228C170.731 389.905 165.427 393.121 159.03 392.666C157.328 405.37 156.41 411.467 153.546 412.916C151.505 418.318 150.831 421.168 149.749 426.205C150.189 427.398 150.171 428.947 150.171 428.947C150.171 428.947 149.802 430.222 148.694 430.423C147.587 430.625 145.952 448.353 145.952 448.564C145.952 448.775 146.585 450.041 146.585 450.041L147.428 451.306C147.619 452.036 147.497 452.456 147.007 453.205C146.516 453.953 145.792 453.492 145.108 453.205C144.242 452.841 143.664 452.245 143.632 451.306C143.373 443.824 146.29 430.253 145.319 430.845C145.319 430.845 144.257 429.657 144.264 428.736C144.274 427.449 146.163 426.416 146.163 426.416L150.803 412.916C149.442 410.737 151.555 404.572 156.71 391.189C159.569 384.865 168.944 383.384 168.944 383.384V380.642L165.147 375.58L164.514 369.884L163.46 368.197L163.249 375.158L161.35 378.322L160.507 381.486C160.949 383.051 150.92 392.5 140.468 389.08C136.709 404.163 134.605 412.574 131.819 411.861C130.462 415.112 129.499 420.72 129.499 420.72C129.499 420.72 130.169 422.539 129.921 424.095C129.673 425.651 127.6 424.939 127.6 424.939C124.148 433.081 122.203 435.498 118.741 441.603C118.207 441.903 119.737 444.678 119.163 444.978C118.239 445.461 116.632 444.134 116.632 444.134C114.349 447.771 111.228 447.148 111.358 446.244C109.534 445.824 115.883 441.001 116.632 440.759C117.38 440.518 115.577 438.861 116.632 438.228C117.686 437.595 125.293 425.551 124.858 424.939C124.423 424.327 124.246 422.613 124.858 421.353C125.316 420.41 126.757 419.455 126.757 419.455C127.847 414.975 128.452 412.757 129.499 411.439C129.552 404.332 131.537 399.038 137.725 387.814C141.591 382.563 156.077 381.275 156.077 381.275C156.077 381.275 158.32 379.851 157.975 378.955C154.233 379.871 152.134 380.274 148.483 379.588C143.734 378.694 137.303 373.47 137.303 373.47C137.017 381.132 134.35 392.244 133.296 392.666C132.241 393.088 132.937 397.39 130.975 398.361C129.014 399.332 130.613 392.355 130.975 392.244C130.358 387.653 135.616 369.884 135.616 369.884C136.036 368.907 149.444 369.226 154.389 375.158H156.71C151.275 366.416 155.971 355.683 157.553 356.173C159.136 356.664 157.078 349.712 157.975 349.423C158.873 349.135 156.288 348.791 156.288 348.791C148.971 358.033 127.06 350.58 127.178 350.056C127.178 350.056 118.748 350.318 115.999 353.009C115.695 349.05 116.534 347.053 121.061 344.15C122.732 340.246 124.214 338.117 128.022 334.447C122.951 326.572 119.957 323.91 114.733 317.783L113.889 304.283C100.767 288.951 98.22 284.716 101.022 283.822C106.316 282.561 110.417 291.819 117.053 302.384C117.053 302.384 116.843 315.041 117.475 315.673C118.108 316.306 124.783 325.21 130.132 332.548L131.186 331.705C127.782 325.521 124.014 313.775 124.014 313.775C123.725 313.697 132.874 301.282 132.874 301.282C132.874 301.282 126.406 277.297 134.561 269.219C143.593 260.273 135.346 279.836 136.249 301.752L127.811 313.775C127.566 317.593 130.27 323.188 133.718 330.228C149.815 324.695 164.011 329.538 159.03 344.15L159.874 345.416H161.772ZM136.671 337.405C139.526 332.424 141.679 330.754 147.85 332.548V332.975C149.037 336.642 137.549 337.988 136.671 337.405Z" fill="black"/>
<path d="M130.132 332.548C124.783 325.21 118.108 316.306 117.475 315.673C116.843 315.041 117.053 302.384 117.053 302.384C110.417 291.819 106.316 282.561 101.022 283.822C98.22 284.716 100.767 288.951 113.889 304.283L114.733 317.783C119.957 323.91 122.951 326.572 128.022 334.447C124.214 338.117 122.732 340.246 121.061 344.15C116.534 347.053 115.695 349.05 115.999 353.009C118.748 350.318 127.178 350.056 127.178 350.056C127.06 350.58 148.971 358.033 156.288 348.791C156.288 348.791 158.873 349.135 157.975 349.423C157.078 349.712 159.136 356.664 157.553 356.173C155.971 355.683 151.275 366.416 156.71 375.158H154.389C149.444 369.226 136.036 368.907 135.616 369.884C135.616 369.884 130.358 387.653 130.975 392.244C130.613 392.355 129.014 399.332 130.975 398.361C132.937 397.39 132.241 393.088 133.296 392.666C134.35 392.244 137.017 381.132 137.303 373.47C137.303 373.47 143.734 378.694 148.483 379.588C152.134 380.274 154.233 379.871 157.975 378.955C158.32 379.851 156.077 381.275 156.077 381.275C156.077 381.275 141.591 382.563 137.725 387.814C131.537 399.038 129.552 404.332 129.499 411.439C128.452 412.757 127.847 414.975 126.757 419.455C126.757 419.455 125.316 420.41 124.858 421.353C124.246 422.613 124.423 424.327 124.858 424.939C125.293 425.551 117.686 437.595 116.632 438.228C115.577 438.861 117.38 440.518 116.632 440.759C115.883 441.001 109.534 445.824 111.358 446.244C111.228 447.148 114.349 447.771 116.632 444.134C116.632 444.134 118.239 445.461 119.163 444.978C119.737 444.678 118.207 441.903 118.741 441.603C122.203 435.498 124.148 433.081 127.6 424.939C127.6 424.939 129.673 425.651 129.921 424.095C130.169 422.539 129.499 420.72 129.499 420.72C129.499 420.72 130.462 415.112 131.819 411.861C134.605 412.574 136.709 404.163 140.468 389.08C150.92 392.5 160.949 383.051 160.507 381.486L161.35 378.322L163.249 375.158L163.46 368.197L164.514 369.884L165.147 375.58L168.944 380.642V383.384C168.944 383.384 159.569 384.865 156.71 391.189C151.555 404.572 149.442 410.737 150.803 412.916L146.163 426.416C146.163 426.416 144.274 427.449 144.264 428.736C144.257 429.657 145.319 430.845 145.319 430.845C146.29 430.253 143.373 443.824 143.632 451.306C143.664 452.245 144.242 452.841 145.108 453.205C145.792 453.492 146.516 453.953 147.007 453.205C147.497 452.456 147.619 452.036 147.428 451.306L146.585 450.041C146.585 450.041 145.952 448.775 145.952 448.564C145.952 448.353 147.587 430.625 148.694 430.423C149.802 430.222 150.171 428.947 150.171 428.947C150.171 428.947 150.189 427.398 149.749 426.205C150.831 421.168 151.505 418.318 153.546 412.916C156.41 411.467 157.328 405.37 159.03 392.666C165.427 393.121 170.731 389.905 172.319 384.228C172.633 383.106 172.298 382.508 172.741 381.275C172.785 380.854 173.052 380.626 173.585 380.22C173.716 378.388 174.116 377.379 174.007 375.58C175.116 376.838 175.751 377.495 176.96 378.322C176.693 381.721 176.787 383.532 176.96 386.759C178.486 392.621 180.048 394.865 186.452 394.986C191.524 392.639 192.664 391.487 195.522 389.08C196.741 405.845 197.823 414.068 202.905 419.455L203.749 426.838C203.749 426.838 202.918 430.002 203.116 430.213C203.314 430.423 204.633 430.499 205.014 430.634C205.395 430.77 205.227 432.314 205.436 433.377C206.457 438.555 208.606 441.02 210.71 445.822C210.662 446.37 210.647 446.684 210.71 447.298C211.214 447.653 212.216 447.084 212.397 447.931C212.578 448.779 212.566 449.247 212.819 450.041C213.498 450.343 213.898 450.349 214.718 450.041C214.876 451.076 215.059 451.587 215.561 452.361C216.075 452.401 216.413 452.381 217.249 452.15C218.561 452.824 221.046 453.205 221.257 452.994C221.468 452.783 222.142 451.143 220.624 450.463C219.085 449.811 214.009 447.425 214.296 446.244C214.582 445.062 214.085 444.978 214.085 444.978L212.819 444.345C210.021 439.166 208.845 435.911 207.335 429.58C207.455 428.861 207.546 427.892 207.335 427.681C207.124 427.47 206.458 426.718 206.069 425.994C205.493 423.83 205.368 422.574 205.436 420.298C214.911 430.105 220.499 433.826 231.171 436.119C243.058 416.528 242.231 398.38 223.577 380.22L233.913 376.002C234.546 374.947 240.03 405.744 240.03 405.744C240.7 406.779 241.397 407.124 242.772 407.642C243.414 411.891 243.898 414.264 245.936 418.4C246.627 418.106 244.671 422.408 244.671 422.408C244.671 422.408 247.89 421.823 248.468 423.673L256.483 440.97C257.739 441.273 255.511 442.007 257.96 443.291C260.408 444.574 267.253 445.621 267.452 445.822C268.569 444.343 268.547 443.798 267.452 443.291C262.989 442.604 261.22 441.772 259.014 439.705C255.008 434.222 249.657 422.427 249.944 422.408C250.232 422.388 250.898 418.551 248.468 418.4C249.367 417.906 243.743 407.368 244.671 405.744C245.599 404.119 241.812 382.372 233.913 370.095C228.436 370.898 224.807 371.8 215.139 376.002C206.211 372.17 200.535 373.617 188.983 384.017C190.592 375.615 189.232 372.909 183.076 371.361C183.415 366.808 183.276 364.456 179.701 362.291C178.789 349.634 174.97 345.857 161.772 345.416H159.874L159.03 344.15C164.011 329.538 149.815 324.695 133.718 330.228C130.27 323.188 127.566 317.593 127.811 313.775L136.249 301.752C135.346 279.836 143.593 260.273 134.561 269.219C126.406 277.297 132.874 301.282 132.874 301.282C132.874 301.282 123.725 313.697 124.014 313.775C124.014 313.775 127.782 325.521 131.186 331.705M130.132 332.548C130.543 332.219 130.774 332.034 131.186 331.705M130.132 332.548L131.186 331.705M147.85 332.548C141.679 330.754 139.526 332.424 136.671 337.405C137.549 337.988 149.037 336.642 147.85 332.975V332.548Z" stroke="black" stroke-width="0.421875"/>
<path fill-rule="evenodd" clip-rule="evenodd" d="M506.509 357.416C493.311 357.857 489.492 361.634 488.58 374.291C485.006 376.456 484.866 378.808 485.205 383.361C479.049 384.909 477.689 387.615 479.299 396.017C467.746 385.617 462.07 384.17 453.142 388.002C443.475 383.8 439.845 382.898 434.368 382.095C426.469 394.372 422.682 416.119 423.611 417.744C424.539 419.368 418.915 429.906 419.814 430.4C417.383 430.551 418.05 434.388 418.337 434.408C418.624 434.427 413.274 446.222 409.267 451.705C407.061 453.772 405.292 454.604 400.829 455.291C399.735 455.798 399.713 456.343 400.829 457.822C401.028 457.621 407.873 456.574 410.321 455.291C412.77 454.007 410.542 453.273 411.798 452.97L419.814 435.673C420.391 433.823 423.611 434.408 423.611 434.408C423.611 434.408 421.654 430.106 422.345 430.4C424.383 426.264 424.867 423.891 425.509 419.642C426.885 419.124 427.581 418.779 428.251 417.744C428.251 417.744 433.736 386.947 434.368 388.002L444.704 392.22C426.05 410.38 425.223 428.528 437.111 448.119C447.782 445.826 453.371 442.105 462.845 432.298C462.914 434.574 462.789 435.83 462.212 437.994C461.824 438.718 461.157 439.47 460.947 439.681C460.736 439.892 460.827 440.861 460.947 441.58C459.436 447.911 458.26 451.166 455.462 456.345L454.197 456.978C454.197 456.978 453.699 457.062 453.986 458.244C454.272 459.425 449.197 461.811 447.657 462.463C446.139 463.143 446.814 464.783 447.025 464.994C447.236 465.205 449.72 464.824 451.032 464.15C451.868 464.381 452.206 464.401 452.72 464.361C453.223 463.587 453.405 463.076 453.564 462.041C454.383 462.349 454.783 462.343 455.462 462.041C455.715 461.247 455.703 460.779 455.884 459.931C456.065 459.084 457.067 459.653 457.572 459.298C457.634 458.684 457.619 458.37 457.572 457.822C459.676 453.02 461.824 450.555 462.845 445.377C463.055 444.314 462.886 442.77 463.267 442.634C463.648 442.499 464.967 442.423 465.165 442.213C465.364 442.002 464.532 438.838 464.532 438.838L465.376 431.455C470.458 426.068 471.54 417.845 472.759 401.08C475.618 403.487 476.757 404.639 481.829 406.986C488.233 406.865 489.795 404.621 491.322 398.759C491.494 395.532 491.589 393.721 491.322 390.322C492.531 389.495 493.165 388.838 494.275 387.58C494.166 389.379 494.565 390.388 494.697 392.22C495.229 392.626 495.496 392.854 495.54 393.275C495.983 394.508 495.648 395.106 495.962 396.228C497.551 401.905 502.854 405.121 509.251 404.666C510.954 417.37 511.871 423.467 514.736 424.916C516.776 430.318 517.45 433.168 518.532 438.205C518.093 439.398 518.111 440.947 518.111 440.947C518.111 440.947 518.48 442.222 519.587 442.423C520.695 442.625 522.329 460.353 522.329 460.564C522.329 460.775 521.697 462.041 521.697 462.041L520.853 463.306C520.662 464.036 520.784 464.456 521.275 465.205C521.765 465.953 522.489 465.492 523.173 465.205C524.039 464.841 524.617 464.245 524.65 463.306C524.909 455.824 521.991 442.253 522.962 442.845C522.962 442.845 524.024 441.657 524.017 440.736C524.007 439.449 522.118 438.416 522.118 438.416L517.478 424.916C518.84 422.737 516.726 416.572 511.572 403.189C508.713 396.865 499.337 395.384 499.337 395.384V392.642L503.134 387.58L503.767 381.884L504.822 380.197L505.032 387.158L506.931 390.322L507.775 393.486C507.333 395.051 517.362 404.5 527.814 401.08C531.572 416.163 533.676 424.574 536.462 423.861C537.819 427.112 538.782 432.72 538.782 432.72C538.782 432.72 538.112 434.539 538.361 436.095C538.609 437.651 540.681 436.939 540.681 436.939C544.133 445.081 546.078 447.498 549.54 453.603C550.074 453.903 548.544 456.678 549.118 456.978C550.042 457.461 551.65 456.134 551.65 456.134C553.933 459.771 557.054 459.148 556.923 458.244C558.748 457.824 552.398 453.001 551.65 452.759C550.901 452.518 552.704 450.861 551.65 450.228C550.595 449.595 542.988 437.551 543.423 436.939C543.858 436.327 544.035 434.613 543.423 433.353C542.965 432.41 541.525 431.455 541.525 431.455C540.434 426.975 539.829 424.757 538.782 423.439C538.729 416.332 536.744 411.038 530.556 399.814C526.691 394.563 512.204 393.275 512.204 393.275C512.204 393.275 509.961 391.851 510.306 390.955C514.048 391.871 516.147 392.274 519.798 391.588C524.548 390.694 530.978 385.47 530.978 385.47C531.264 393.132 533.931 404.244 534.986 404.666C536.04 405.088 535.344 409.39 537.306 410.361C539.268 411.332 537.668 404.355 537.306 404.244C537.923 399.653 532.665 381.884 532.665 381.884C532.245 380.907 518.837 381.226 513.892 387.158H511.572C517.006 378.416 512.31 367.683 510.728 368.173C509.145 368.664 511.203 361.712 510.306 361.423C509.408 361.135 511.993 360.791 511.993 360.791C519.31 370.033 541.221 362.58 541.103 362.056C541.103 362.056 549.534 362.318 552.282 365.009C552.586 361.05 551.747 359.053 547.22 356.15C545.55 352.246 544.068 350.117 540.259 346.447C545.33 338.572 548.325 335.91 553.548 329.783L554.392 316.283C567.514 300.951 570.061 296.716 567.259 295.822C561.965 294.561 557.865 303.819 551.228 314.384C551.228 314.384 551.439 327.041 550.806 327.673C550.173 328.306 543.499 337.21 538.15 344.548L537.095 343.705C540.5 337.521 544.267 325.775 544.267 325.775C544.556 325.697 535.407 313.282 535.407 313.282C535.407 313.282 541.875 289.297 533.72 281.219C524.688 272.273 532.936 291.836 532.032 313.752L540.47 325.775C540.715 329.593 538.011 335.188 534.564 342.228C518.466 336.695 504.27 341.538 509.251 356.15L508.407 357.416H506.509ZM531.611 349.405C528.756 344.424 526.603 342.754 520.431 344.548V344.975C519.244 348.642 530.732 349.988 531.611 349.405Z" fill="black"/>
<path d="M538.15 344.548C543.499 337.21 550.173 328.306 550.806 327.673C551.439 327.041 551.228 314.384 551.228 314.384C557.865 303.819 561.965 294.561 567.259 295.822C570.061 296.716 567.514 300.951 554.392 316.283L553.548 329.783C548.325 335.91 545.33 338.572 540.259 346.447C544.068 350.117 545.55 352.246 547.22 356.15C551.747 359.053 552.586 361.05 552.282 365.009C549.534 362.318 541.103 362.056 541.103 362.056C541.221 362.58 519.31 370.033 511.993 360.791C511.993 360.791 509.408 361.135 510.306 361.423C511.203 361.712 509.145 368.664 510.728 368.173C512.31 367.683 517.006 378.416 511.572 387.158H513.892C518.837 381.226 532.245 380.907 532.665 381.884C532.665 381.884 537.923 399.653 537.306 404.244C537.668 404.355 539.268 411.332 537.306 410.361C535.344 409.39 536.04 405.088 534.986 404.666C533.931 404.244 531.264 393.132 530.978 385.47C530.978 385.47 524.548 390.694 519.798 391.588C516.147 392.274 514.048 391.871 510.306 390.955C509.961 391.851 512.204 393.275 512.204 393.275C512.204 393.275 526.691 394.563 530.556 399.814C536.744 411.038 538.729 416.332 538.782 423.439C539.829 424.757 540.434 426.975 541.525 431.455C541.525 431.455 542.965 432.41 543.423 433.353C544.035 434.613 543.858 436.327 543.423 436.939C542.988 437.551 550.595 449.595 551.65 450.228C552.704 450.861 550.901 452.518 551.65 452.759C552.398 453.001 558.748 457.824 556.923 458.244C557.054 459.148 553.933 459.771 551.65 456.134C551.65 456.134 550.042 457.461 549.118 456.978C548.544 456.678 550.074 453.903 549.54 453.603C546.078 447.498 544.133 445.081 540.681 436.939C540.681 436.939 538.609 437.651 538.361 436.095C538.112 434.539 538.782 432.72 538.782 432.72C538.782 432.72 537.819 427.112 536.462 423.861C533.676 424.574 531.572 416.163 527.814 401.08C517.362 404.5 507.333 395.051 507.775 393.486L506.931 390.322L505.032 387.158L504.822 380.197L503.767 381.884L503.134 387.58L499.337 392.642V395.384C499.337 395.384 508.713 396.865 511.572 403.189C516.726 416.572 518.84 422.737 517.478 424.916L522.118 438.416C522.118 438.416 524.007 439.449 524.017 440.736C524.024 441.657 522.962 442.845 522.962 442.845C521.991 442.253 524.909 455.824 524.65 463.306C524.617 464.245 524.039 464.841 523.173 465.205C522.489 465.492 521.765 465.953 521.275 465.205C520.784 464.456 520.662 464.036 520.853 463.306L521.697 462.041C521.697 462.041 522.329 460.775 522.329 460.564C522.329 460.353 520.695 442.625 519.587 442.423C518.48 442.222 518.111 440.947 518.111 440.947C518.111 440.947 518.093 439.398 518.532 438.205C517.45 433.168 516.776 430.318 514.736 424.916C511.871 423.467 510.954 417.37 509.251 404.666C502.854 405.121 497.551 401.905 495.962 396.228C495.648 395.106 495.983 394.508 495.54 393.275C495.496 392.854 495.229 392.626 494.697 392.22C494.565 390.388 494.166 389.379 494.275 387.58C493.165 388.838 492.531 389.495 491.322 390.322C491.589 393.721 491.494 395.532 491.322 398.759C489.795 404.621 488.233 406.865 481.829 406.986C476.757 404.639 475.618 403.487 472.759 401.08C471.54 417.845 470.458 426.068 465.376 431.455L464.532 438.838C464.532 438.838 465.364 442.002 465.165 442.213C464.967 442.423 463.648 442.499 463.267 442.634C462.886 442.77 463.055 444.314 462.845 445.377C461.824 450.555 459.676 453.02 457.572 457.822C457.619 458.37 457.634 458.684 457.572 459.298C457.067 459.653 456.065 459.084 455.884 459.931C455.703 460.779 455.715 461.247 455.462 462.041C454.783 462.343 454.383 462.349 453.564 462.041C453.405 463.076 453.223 463.587 452.72 464.361C452.206 464.401 451.868 464.381 451.032 464.15C449.72 464.824 447.236 465.205 447.025 464.994C446.814 464.783 446.139 463.143 447.657 462.463C449.197 461.811 454.272 459.425 453.986 458.244C453.699 457.062 454.197 456.978 454.197 456.978L455.462 456.345C458.26 451.166 459.436 447.911 460.947 441.58C460.827 440.861 460.736 439.892 460.947 439.681C461.157 439.47 461.824 438.718 462.212 437.994C462.789 435.83 462.914 434.574 462.845 432.298C453.371 442.105 447.782 445.826 437.111 448.119C425.223 428.528 426.05 410.38 444.704 392.22L434.368 388.002C433.736 386.947 428.251 417.744 428.251 417.744C427.581 418.779 426.885 419.124 425.509 419.642C424.867 423.891 424.383 426.264 422.345 430.4C421.654 430.106 423.611 434.408 423.611 434.408C423.611 434.408 420.391 433.823 419.814 435.673L411.798 452.97C410.542 453.273 412.77 454.007 410.321 455.291C407.873 456.574 401.028 457.621 400.829 457.822C399.713 456.343 399.735 455.798 400.829 455.291C405.292 454.604 407.061 453.772 409.267 451.705C413.274 446.222 418.624 434.427 418.337 434.408C418.05 434.388 417.383 430.551 419.814 430.4C418.915 429.906 424.539 419.368 423.611 417.744C422.682 416.119 426.469 394.372 434.368 382.095C439.845 382.898 443.475 383.8 453.142 388.002C462.07 384.17 467.746 385.617 479.299 396.017C477.689 387.615 479.049 384.909 485.205 383.361C484.866 378.808 485.006 376.456 488.58 374.291C489.492 361.634 493.311 357.857 506.509 357.416H508.407L509.251 356.15C504.27 341.538 518.466 336.695 534.564 342.228C538.011 335.188 540.715 329.593 540.47 325.775L532.032 313.752C532.936 291.836 524.688 272.273 533.72 281.219C541.875 289.297 535.407 313.282 535.407 313.282C535.407 313.282 544.556 325.697 544.267 325.775C544.267 325.775 540.5 337.521 537.095 343.705M538.15 344.548C537.738 344.219 537.507 344.034 537.095 343.705M538.15 344.548L537.095 343.705M520.431 344.548C526.603 342.754 528.756 344.424 531.611 349.405C530.732 349.988 519.244 348.642 520.431 344.975V344.548Z" stroke="black" stroke-width="0.421875"/>
<path fill-rule="evenodd" clip-rule="evenodd" d="M420.025 210.108C384.83 211.286 374.646 221.356 372.213 255.108C362.681 260.884 362.309 267.155 363.213 279.296C346.798 283.423 343.171 290.64 347.463 313.046C316.657 285.313 301.519 281.454 277.711 291.671C251.932 280.468 242.254 278.06 227.649 275.921C206.584 308.658 196.487 366.651 198.961 370.983C201.436 375.316 186.439 403.416 188.836 404.733C182.355 405.136 184.133 415.369 184.899 415.421C185.665 415.473 171.396 446.925 160.711 461.546C154.829 467.057 150.112 469.278 138.211 471.108C135.292 472.463 135.234 473.915 138.211 477.858C138.741 477.322 156.994 474.53 163.524 471.108C170.054 467.687 164.113 465.727 167.461 464.921L188.836 418.796C190.377 413.861 198.961 415.421 198.961 415.421C198.961 415.421 193.745 403.948 195.586 404.733C201.022 393.704 202.312 387.376 204.024 376.046C207.692 374.663 209.55 373.743 211.336 370.983C211.336 370.983 225.962 288.858 227.649 291.671L255.212 302.921C205.466 351.346 203.262 399.741 234.962 451.983C263.419 445.868 278.322 435.946 303.587 409.796C303.77 415.863 303.436 419.214 301.899 424.983C300.863 426.914 299.087 428.921 298.524 429.483C297.962 430.046 298.204 432.631 298.524 434.546C294.496 451.428 291.361 460.11 283.899 473.921L280.524 475.608C280.524 475.608 279.198 475.832 279.962 478.983C280.725 482.135 267.191 488.496 263.087 490.233C259.038 492.049 260.837 496.421 261.399 496.983C261.962 497.546 268.588 496.531 272.087 494.733C274.315 495.349 275.217 495.401 276.587 495.296C277.927 493.231 278.413 491.869 278.837 489.108C281.022 489.931 282.089 489.916 283.899 489.108C284.574 486.991 284.541 485.743 285.024 483.483C285.507 481.223 288.179 482.743 289.524 481.796C289.691 480.156 289.651 479.319 289.524 477.858C295.135 465.052 300.864 458.481 303.587 444.671C304.145 441.836 303.696 437.72 304.712 437.358C305.727 436.997 309.245 436.796 309.774 436.233C310.303 435.671 308.087 427.233 308.087 427.233L310.337 407.546C323.889 393.182 326.773 371.253 330.024 326.546C337.647 332.966 340.685 336.037 354.212 342.296C371.288 341.974 375.454 335.99 379.524 320.358C379.985 311.751 380.236 306.923 379.524 297.858C382.748 295.652 384.44 293.902 387.399 290.546C387.108 295.345 388.175 298.035 388.524 302.921C389.944 304.001 390.657 304.612 390.774 305.733C391.955 309.022 391.062 310.617 391.899 313.608C396.135 328.747 410.277 337.324 427.337 336.108C431.876 369.985 434.322 386.244 441.962 390.108C447.403 404.515 449.201 412.115 452.087 425.546C450.913 428.729 450.962 432.858 450.962 432.858C450.962 432.858 451.946 436.258 454.899 436.796C457.852 437.334 462.212 484.608 462.212 485.171C462.212 485.733 460.524 489.108 460.524 489.108L458.274 492.483C457.765 494.429 458.092 495.551 459.399 497.546C460.706 499.541 462.639 498.311 464.462 497.546C466.771 496.577 468.312 494.987 468.399 492.483C469.089 472.531 461.31 436.341 463.899 437.921C463.899 437.921 466.73 434.752 466.712 432.296C466.685 428.865 461.649 426.108 461.649 426.108L449.274 390.108C452.906 384.299 447.27 367.858 433.524 332.171C425.9 315.306 400.899 311.358 400.899 311.358V304.046L411.024 290.546L412.712 275.358L415.524 270.858L416.087 289.421L421.149 297.858L423.399 306.296C422.221 310.47 448.965 335.668 476.837 326.546C486.858 366.768 492.469 389.197 499.899 387.296C503.518 395.966 506.087 410.921 506.087 410.921C506.087 410.921 504.3 415.771 504.962 419.921C505.623 424.07 511.149 422.171 511.149 422.171C520.355 443.882 525.541 450.329 534.774 466.608C536.197 467.408 532.118 474.808 533.649 475.608C536.111 476.896 540.399 473.358 540.399 473.358C546.487 483.055 554.809 481.393 554.462 478.983C559.327 477.865 542.395 465.003 540.399 464.358C538.403 463.714 543.212 459.296 540.399 457.608C537.587 455.921 517.301 423.803 518.462 422.171C519.622 420.539 520.093 415.968 518.462 412.608C517.24 410.093 513.399 407.546 513.399 407.546C510.492 395.6 508.878 389.686 506.087 386.171C505.943 367.219 500.651 353.1 484.149 323.171C473.842 309.167 435.212 305.733 435.212 305.733C435.212 305.733 429.23 301.937 430.149 299.546C440.128 301.988 445.725 303.065 455.462 301.233C468.127 298.85 485.274 284.921 485.274 284.921C486.038 305.351 493.149 334.983 495.962 336.108C498.774 337.233 496.918 348.707 502.149 351.296C507.381 353.884 503.116 335.279 502.149 334.983C503.795 322.742 489.774 275.358 489.774 275.358C488.654 272.752 452.899 273.603 439.712 289.421H433.524C448.016 266.109 435.493 237.487 431.274 238.796C427.055 240.104 432.542 221.564 430.149 220.796C427.756 220.027 434.649 219.108 434.649 219.108C454.159 243.756 512.589 223.879 512.274 222.483C512.274 222.483 534.756 223.182 542.087 230.358C542.896 219.799 540.659 214.474 528.587 206.733C524.132 196.324 520.18 190.646 510.024 180.858C523.546 159.859 531.532 152.761 545.462 136.421L547.712 100.421C582.705 59.5352 589.497 48.2424 582.024 45.8583C567.908 42.4962 556.973 67.1844 539.274 95.3583C539.274 95.3583 539.837 129.108 538.149 130.796C536.462 132.483 518.663 156.227 504.399 175.796L501.587 173.546C510.666 157.056 520.712 125.733 520.712 125.733C521.482 125.525 497.087 92.4182 497.087 92.4182C497.087 92.4182 514.333 28.4575 492.587 6.91818C468.501 -16.9382 490.495 35.2291 488.087 93.6708L510.587 125.733C511.239 135.915 504.03 150.835 494.837 169.608C451.91 154.853 414.054 167.767 427.337 206.733L425.087 210.108H420.025ZM486.962 188.745C479.349 175.464 473.607 171.011 457.149 175.796V176.933C453.985 186.713 484.62 190.302 486.962 188.745Z" fill="#E22121"/>
<path d="M504.399 175.796C518.663 156.227 536.462 132.483 538.149 130.796C539.837 129.108 539.274 95.3583 539.274 95.3583C556.973 67.1844 567.908 42.4962 582.024 45.8583C589.497 48.2424 582.705 59.5352 547.712 100.421L545.462 136.421C531.532 152.761 523.546 159.859 510.024 180.858C520.18 190.646 524.132 196.324 528.587 206.733C540.659 214.474 542.896 219.799 542.087 230.358C534.756 223.182 512.274 222.483 512.274 222.483C512.589 223.879 454.159 243.756 434.649 219.108C434.649 219.108 427.756 220.027 430.149 220.796C432.542 221.564 427.055 240.104 431.274 238.796C435.493 237.487 448.016 266.109 433.524 289.421H439.712C452.899 273.603 488.654 272.752 489.774 275.358C489.774 275.358 503.795 322.742 502.149 334.983C503.116 335.279 507.381 353.884 502.149 351.296C496.918 348.707 498.774 337.233 495.962 336.108C493.149 334.983 486.038 305.351 485.274 284.921C485.274 284.921 468.127 298.85 455.462 301.233C445.725 303.065 440.128 301.988 430.149 299.546C429.23 301.937 435.212 305.733 435.212 305.733C435.212 305.733 473.842 309.167 484.149 323.171C500.651 353.1 505.943 367.219 506.087 386.171C508.878 389.686 510.492 395.6 513.399 407.546C513.399 407.546 517.24 410.093 518.462 412.608C520.093 415.968 519.622 420.539 518.462 422.171C517.301 423.803 537.587 455.921 540.399 457.608C543.212 459.296 538.403 463.714 540.399 464.358C542.395 465.003 559.327 477.865 554.462 478.983C554.809 481.393 546.487 483.055 540.399 473.358C540.399 473.358 536.111 476.896 533.649 475.608C532.118 474.808 536.197 467.408 534.774 466.608C525.541 450.329 520.355 443.882 511.149 422.171C511.149 422.171 505.623 424.07 504.962 419.921C504.3 415.771 506.087 410.921 506.087 410.921C506.087 410.921 503.518 395.966 499.899 387.296C492.469 389.197 486.858 366.768 476.837 326.546C448.965 335.668 422.221 310.47 423.399 306.296L421.149 297.858L416.087 289.421L415.524 270.858L412.712 275.358L411.024 290.546L400.899 304.046V311.358C400.899 311.358 425.9 315.306 433.524 332.171C447.27 367.858 452.906 384.299 449.274 390.108L461.649 426.108C461.649 426.108 466.685 428.865 466.712 432.296C466.73 434.752 463.899 437.921 463.899 437.921C461.31 436.341 469.089 472.531 468.399 492.483C468.312 494.987 466.771 496.577 464.462 497.546C462.639 498.311 460.706 499.541 459.399 497.546C458.092 495.551 457.765 494.429 458.274 492.483L460.524 489.108C460.524 489.108 462.212 485.733 462.212 485.171C462.212 484.608 457.852 437.334 454.899 436.796C451.946 436.258 450.962 432.858 450.962 432.858C450.962 432.858 450.913 428.729 452.087 425.546C449.201 412.115 447.403 404.515 441.962 390.108C434.322 386.244 431.876 369.985 427.337 336.108C410.277 337.324 396.135 328.747 391.899 313.608C391.062 310.617 391.955 309.022 390.774 305.733C390.657 304.612 389.944 304.002 388.524 302.921C388.175 298.035 387.108 295.345 387.399 290.546C384.44 293.902 382.748 295.652 379.524 297.858C380.236 306.923 379.985 311.751 379.524 320.358C375.454 335.99 371.288 341.974 354.212 342.296C340.685 336.037 337.647 332.966 330.024 326.546C326.773 371.253 323.889 393.182 310.337 407.546L308.087 427.233C308.087 427.233 310.303 435.671 309.774 436.233C309.245 436.796 305.727 436.997 304.712 437.358C303.696 437.72 304.145 441.836 303.587 444.671C300.864 458.481 295.135 465.052 289.524 477.858C289.651 479.319 289.691 480.156 289.524 481.796C288.179 482.743 285.507 481.223 285.024 483.483C284.541 485.743 284.574 486.991 283.899 489.108C282.089 489.916 281.022 489.931 278.837 489.108C278.413 491.869 277.927 493.231 276.587 495.296C275.217 495.401 274.315 495.349 272.087 494.733C268.588 496.531 261.962 497.546 261.399 496.983C260.837 496.421 259.038 492.049 263.087 490.233C267.191 488.496 280.725 482.135 279.962 478.983C279.198 475.832 280.524 475.608 280.524 475.608L283.899 473.921C291.361 460.11 294.496 451.428 298.524 434.546C298.204 432.631 297.962 430.046 298.524 429.483C299.087 428.921 300.863 426.914 301.899 424.983C303.436 419.214 303.77 415.863 303.587 409.796C278.322 435.946 263.419 445.868 234.962 451.983C203.262 399.741 205.466 351.346 255.212 302.921L227.649 291.671C225.962 288.858 211.336 370.983 211.336 370.983C209.55 373.743 207.692 374.663 204.024 376.046C202.312 387.376 201.022 393.704 195.586 404.733C193.745 403.948 198.961 415.421 198.961 415.421C198.961 415.421 190.377 413.861 188.836 418.796L167.461 464.921C164.113 465.727 170.054 467.687 163.524 471.108C156.994 474.53 138.741 477.322 138.211 477.858C135.234 473.915 135.292 472.463 138.211 471.108C150.112 469.278 154.829 467.057 160.711 461.546C171.396 446.925 185.665 415.473 184.899 415.421C184.133 415.369 182.355 405.136 188.836 404.733C186.439 403.416 201.436 375.316 198.961 370.983C196.487 366.651 206.584 308.658 227.649 275.921C242.254 278.06 251.932 280.468 277.711 291.671C301.519 281.454 316.657 285.313 347.463 313.046C343.171 290.64 346.798 283.423 363.213 279.296C362.309 267.155 362.681 260.884 372.213 255.108C374.646 221.356 384.83 211.286 420.025 210.108H425.087L427.337 206.733C414.054 167.767 451.91 154.853 494.837 169.608C504.03 150.835 511.239 135.915 510.587 125.733L488.087 93.6708C490.495 35.2291 468.501 -16.9382 492.587 6.91818C514.333 28.4575 497.087 92.4182 497.087 92.4182C497.087 92.4182 521.482 125.525 520.712 125.733C520.712 125.733 510.666 157.056 501.587 173.546M504.399 175.796C503.301 174.917 502.685 174.424 501.587 173.546M504.399 175.796L501.587 173.546M457.149 175.796C473.607 171.011 479.349 175.464 486.962 188.745C484.62 190.302 453.985 186.713 457.149 176.933V175.796Z" stroke="black" stroke-width="1.125"/>
</svg>
